<svg id="Layer_1" data-name="Layer 1" xmlns="http://www.w3.org/2000/svg" viewBox="0 0 502.84 234.56"><defs><style>.cls-1{fill:#f33;}</style></defs><title>Untitled-1</title><path d="M344.65,89.71l-3.21.79-0.84-3.31,5.28-1.58h2.76v18.52h-4V89.71Z"/><path d="M352.35,99.09V99a4.47,4.47,0,0,1,3-4.44,4.37,4.37,0,0,1-2.34-4V90.53c0-2.81,2.57-5,6.46-5s6.46,2.21,6.46,5v0.05a4.37,4.37,0,0,1-2.34,4c1.87,1,3,2.16,3,4.34V99c0,3.42-3,5.41-7.09,5.41S352.35,102.3,352.35,99.09Zm10.27-.32V98.73c0-1.42-1.34-2.26-3.18-2.26s-3.18.84-3.18,2.26v0.05c0,1.26,1.18,2.29,3.18,2.29S362.63,100.07,362.63,98.78ZM362.08,91V91a2.34,2.34,0,0,0-2.63-2.15c-1.66,0-2.63,1-2.63,2.13V91A2.66,2.66,0,0,0,362.08,91Z"/><path d="M371.49,102.48c-1.34-1.34-2.18-3.31-2.18-7V95.47c0-5.68,2.58-10,8.07-10a8.52,8.52,0,0,1,5.75,2L381,90.58a5.66,5.66,0,0,0-3.76-1.47c-2.29,0-3.44,1.84-3.71,4.26a6.36,6.36,0,0,1,3.81-1.18c3.65,0,6.46,2,6.46,5.86V98.1c0,3.76-3,6.36-7,6.36A7,7,0,0,1,371.49,102.48Zm8.3-4.2V98.23c0-1.55-1.21-2.68-3.21-2.68s-3.15,1.1-3.15,2.65v0.05c0,1.55,1.21,2.73,3.21,2.73S379.8,99.86,379.8,98.28Z"/><path d="M386,101.7l2.44-2.92a6.44,6.44,0,0,0,4.39,2c1.89,0,3.07-.92,3.07-2.55V98.18c0-1.58-1.34-2.5-3.26-2.5a7.89,7.89,0,0,0-3.07.68l-2.34-1.55,0.53-9.07h11.3v3.55h-7.83L391,92.47a9,9,0,0,1,2.42-.32c3.57,0,6.44,1.73,6.44,5.89V98.1c0,3.89-2.76,6.36-7,6.36A9.46,9.46,0,0,1,386,101.7Z"/><path d="M410.65,94.13h21v3.73h-21V94.13Z"/><path d="M445.49,89.71l-3.21.79-0.84-3.31,5.28-1.58h2.76v18.52h-4V89.71Z"/><path d="M453.7,102.27l2.13-3.07a6,6,0,0,0,4,1.58c2.26,0,3.47-1.71,3.73-4.18a5.59,5.59,0,0,1-3.73,1.26c-4,0-6.57-2.21-6.57-5.94V91.87c0-3.71,2.86-6.44,7-6.44a6.66,6.66,0,0,1,5.31,2c1.31,1.31,2.18,3.31,2.18,6.94v0.05c0,6-2.81,10-8,10A8.89,8.89,0,0,1,453.7,102.27Zm10-10.51V91.71c0-1.63-1.21-2.81-3.23-2.81s-3.13,1.16-3.13,2.79v0.05c0,1.63,1.21,2.76,3.21,2.76S463.66,93.34,463.66,91.76Z"/><path d="M479.7,100.17h-9l-0.66-2.86,10.09-11.69h3.42V96.89H486v3.28h-2.47v4H479.7v-4Zm0-3.28V91.16l-4.89,5.73h4.89Z"/><path d="M488.76,102.27l2.13-3.07a6,6,0,0,0,4,1.58c2.26,0,3.47-1.71,3.73-4.18a5.59,5.59,0,0,1-3.73,1.26c-4,0-6.57-2.21-6.57-5.94V91.87c0-3.71,2.86-6.44,7-6.44a6.66,6.66,0,0,1,5.31,2c1.31,1.31,2.18,3.31,2.18,6.94v0.05c0,6-2.81,10-8,10A8.89,8.89,0,0,1,488.76,102.27Zm10-10.51V91.71c0-1.63-1.21-2.81-3.23-2.81s-3.13,1.16-3.13,2.79v0.05c0,1.63,1.21,2.76,3.21,2.76S498.72,93.34,498.72,91.76Z"/><path d="M100.27,138.11V138A20.22,20.22,0,0,1,121,117.42c7.5,0,12,2.5,15.68,6.14L131.12,130c-3.07-2.78-6.19-4.49-10.17-4.49-6.71,0-11.54,5.57-11.54,12.39V138c0,6.82,4.72,12.5,11.54,12.5,4.55,0,7.33-1.82,10.46-4.66l5.57,5.63c-4.09,4.38-8.64,7.1-16.31,7.1A20.08,20.08,0,0,1,100.27,138.11Z"/><path d="M140.08,142.82v-0.11c0-8.75,7-15.85,16.54-15.85s16.42,7,16.42,15.74v0.11c0,8.75-7,15.85-16.54,15.85S140.08,151.57,140.08,142.82Zm24.43,0v-0.11c0-4.49-3.24-8.41-8-8.41-4.94,0-7.9,3.81-7.9,8.3v0.11c0,4.49,3.24,8.41,8,8.41C161.56,151.12,164.51,147.31,164.51,142.82Z"/><path d="M178.79,127.42h8.64v4.32c2-2.56,4.55-4.89,8.92-4.89,6.53,0,10.34,4.32,10.34,11.31v19.72h-8.64v-17c0-4.09-1.93-6.19-5.23-6.19s-5.4,2.1-5.4,6.19v17h-8.64V127.42Z"/><path d="M215.11,134.81h-3.58v-7.1h3.58v-1.93c0-3.35.85-5.8,2.44-7.39s3.92-2.39,7-2.39a19.1,19.1,0,0,1,6.14.85V124a11,11,0,0,0-3.92-.74c-2,0-3.12,1-3.12,3.3v1.19h7v7h-6.88v23.07h-8.64V134.81Z"/><path d="M233.12,142.82v-0.11c0-8.69,6.19-15.85,15.06-15.85,10.17,0,14.83,7.9,14.83,16.54,0,0.68-.06,1.48-0.11,2.27H241.7a7.06,7.06,0,0,0,7.44,6,10,10,0,0,0,7.39-3.13l4.94,4.38A15.23,15.23,0,0,1,249,158.56C239.88,158.56,233.12,152.14,233.12,142.82Zm21.48-2.56c-0.51-3.86-2.78-6.48-6.42-6.48s-5.91,2.56-6.59,6.48h13Z"/><path d="M267.45,142.71V142.6c0-10.17,6.65-15.74,13.87-15.74a11.7,11.7,0,0,1,9.49,4.55v-15h8.64v41.48H290.8v-4.37a11.19,11.19,0,0,1-9.49,4.94C274.21,158.45,267.45,152.88,267.45,142.71Zm23.47,0V142.6c0-5.06-3.35-8.41-7.39-8.41s-7.44,3.3-7.44,8.41v0.11c0,5.06,3.41,8.41,7.44,8.41S290.92,147.77,290.92,142.71Z"/><path d="M305.3,142.82v-0.11c0-8.69,6.19-15.85,15.06-15.85,10.17,0,14.83,7.9,14.83,16.54,0,0.68-.06,1.48-0.11,2.27h-21.2a7.06,7.06,0,0,0,7.44,6,10,10,0,0,0,7.39-3.13l4.94,4.38a15.23,15.23,0,0,1-12.44,5.68C312.06,158.56,305.3,152.14,305.3,142.82Zm21.48-2.56c-0.51-3.86-2.78-6.48-6.42-6.48s-5.91,2.56-6.59,6.48h13Z"/><path d="M341,127.42h8.64v6.14c1.76-4.21,4.6-6.93,9.72-6.71v9h-0.45c-5.74,0-9.26,3.47-9.26,10.74v11.25H341V127.42Z"/><path d="M361.36,149.13V149c0-6.65,5.06-9.72,12.27-9.72a21.66,21.66,0,0,1,7.44,1.25V140c0-3.58-2.22-5.57-6.54-5.57a22.42,22.42,0,0,0-8.41,1.65L364,129.53a26.87,26.87,0,0,1,11.82-2.44c4.72,0,8.13,1.25,10.29,3.41s3.3,5.63,3.3,9.72v17.67H381v-3.3a11.71,11.71,0,0,1-9.21,3.86C366.08,158.45,361.36,155.15,361.36,149.13Zm19.83-2v-1.53a13.38,13.38,0,0,0-5.51-1.14c-3.69,0-6,1.48-6,4.21v0.11c0,2.33,1.93,3.69,4.72,3.69C378.47,152.48,381.19,150.27,381.19,147.14Z"/><path d="M397.5,149.24V134.81h-3.64v-7.39h3.64v-7.79h8.64v7.79h7.16v7.39h-7.16v13c0,2,.85,3,2.78,3a8.79,8.79,0,0,0,4.26-1.08v6.93a12.73,12.73,0,0,1-6.82,1.76C401.08,158.39,397.5,156.29,397.5,149.24Z"/><path d="M419.42,116.4h9.09v7.67h-9.09V116.4Zm0.23,11h8.64v30.46h-8.64V127.42Z"/><path d="M434,142.82v-0.11c0-8.75,7-15.85,16.54-15.85s16.42,7,16.42,15.74v0.11c0,8.75-7,15.85-16.54,15.85S434,151.57,434,142.82Zm24.43,0v-0.11c0-4.49-3.24-8.41-8-8.41-4.94,0-7.9,3.81-7.9,8.3v0.11c0,4.49,3.24,8.41,8,8.41C455.5,151.12,458.45,147.31,458.45,142.82Z"/><path d="M472.73,127.42h8.64v4.32c2-2.56,4.55-4.89,8.92-4.89,6.53,0,10.34,4.32,10.34,11.31v19.72H492v-17c0-4.09-1.93-6.19-5.23-6.19s-5.4,2.1-5.4,6.19v17h-8.64V127.42Z"/><path d="M276.32,171.85h15.51c12.5,0,21.14,8.58,21.14,19.77v0.11c0,11.19-8.64,19.89-21.14,19.89H276.32V171.85Zm15.51,31.88c7.16,0,12-4.83,12-11.88v-0.11c0-7-4.83-12-12-12h-6.76v24h6.76Z"/><path d="M316.81,196.57v-0.11c0-8.69,6.19-15.85,15.06-15.85,10.17,0,14.83,7.9,14.83,16.54,0,0.68-.06,1.48-0.11,2.27h-21.2a7.06,7.06,0,0,0,7.44,6,10,10,0,0,0,7.39-3.13l4.94,4.38a15.23,15.23,0,0,1-12.44,5.68C323.58,212.31,316.81,205.88,316.81,196.57ZM338.29,194c-0.51-3.86-2.78-6.48-6.42-6.48s-5.91,2.56-6.59,6.48h13Z"/><path d="M361.17,207.65v4h-8.64V170.14h8.64v15.4a11.19,11.19,0,0,1,9.49-4.94c7.1,0,13.86,5.57,13.86,15.74v0.11c0,10.17-6.65,15.74-13.86,15.74A11.7,11.7,0,0,1,361.17,207.65Zm14.72-11.19v-0.11c0-5.06-3.41-8.41-7.44-8.41s-7.39,3.35-7.39,8.41v0.11c0,5.06,3.35,8.41,7.39,8.41S375.89,201.57,375.89,196.45Z"/><path d="M388.26,202.87v-0.11c0-6.65,5.06-9.72,12.27-9.72a21.66,21.66,0,0,1,7.44,1.25v-0.51c0-3.58-2.22-5.57-6.54-5.57a22.41,22.41,0,0,0-8.41,1.65l-2.16-6.59a26.87,26.87,0,0,1,11.82-2.44c4.72,0,8.13,1.25,10.29,3.41s3.3,5.63,3.3,9.72v17.67h-8.35v-3.3a11.71,11.71,0,0,1-9.21,3.86C393,212.19,388.26,208.9,388.26,202.87Zm19.83-2v-1.53a13.38,13.38,0,0,0-5.51-1.14c-3.69,0-6,1.48-6,4.21v0.11c0,2.33,1.93,3.69,4.72,3.69C405.36,206.23,408.09,204,408.09,200.88Z"/><path d="M424.39,203V188.55h-3.64v-7.39h3.64v-7.79H433v7.79h7.16v7.39H433v13c0,2,.85,3,2.78,3a8.79,8.79,0,0,0,4.26-1.08v6.93a12.73,12.73,0,0,1-6.82,1.76C428,212.14,424.39,210,424.39,203Z"/><path d="M444.18,196.57v-0.11c0-8.69,6.19-15.85,15.06-15.85,10.17,0,14.83,7.9,14.83,16.54,0,0.68-.06,1.48-0.11,2.27h-21.2a7.06,7.06,0,0,0,7.44,6,10,10,0,0,0,7.39-3.13l4.94,4.38a15.23,15.23,0,0,1-12.44,5.68C450.94,212.31,444.18,205.88,444.18,196.57ZM465.66,194c-0.51-3.86-2.78-6.48-6.42-6.48s-5.91,2.56-6.59,6.48h13Z"/><path d="M477.21,207.59l3.69-5.68a17.22,17.22,0,0,0,9.6,3.64c2.5,0,3.64-.91,3.64-2.27v-0.11c0-1.87-3-2.5-6.31-3.52-4.26-1.25-9.09-3.24-9.09-9.15v-0.11c0-6.19,5-9.66,11.14-9.66a21.08,21.08,0,0,1,11.36,3.52l-3.3,6c-3-1.76-6-2.84-8.24-2.84s-3.18.91-3.18,2.1v0.11c0,1.71,2.9,2.5,6.19,3.64,4.26,1.42,9.21,3.47,9.21,9v0.11c0,6.76-5.06,9.83-11.65,9.83A21.34,21.34,0,0,1,477.21,207.59Z"/><path class="cls-1" d="M47.84,161.48l-0.3,0a2.51,2.51,0,0,1-1.94-1.31l-0.39-.81-1.43-3.07c-0.75.18-1.48,0.38-2.16,0.57l-7.07,1.95-3,.82-0.27.07a2.58,2.58,0,0,1-2.32-.58,2.51,2.51,0,0,1-.83-2.2c0-.16,0-0.26.06-0.36l2.25-10.76-4.54-1.3a2.57,2.57,0,0,1-1.74-1.87,2.5,2.5,0,0,1,.73-2.41L28,137.49l5.59-5-1.24.23-6.16,1.16-11.86,2.24a2.5,2.5,0,0,1-2.7-3.55l0.69-1.34L14.44,127a2.68,2.68,0,0,0,.17-0.38l-13.09-7-0.24-.13A2.58,2.58,0,0,1,0,117.34a2.5,2.5,0,0,1,1.2-2.18L1.52,115l13.07-7v0a4.43,4.43,0,0,0-.21-0.46l-2.68-5.18,0-.1-0.05-.1a2.5,2.5,0,0,1,2.66-3.6l2,0.37,17.27,3.25L25,94.52a2.5,2.5,0,0,1,.84-4.38l4.59-1.31L28.17,78.09c0-.07,0-0.16,0-0.26a2.56,2.56,0,0,1,.75-2.27,2.5,2.5,0,0,1,2.27-.65l0.1,0L31.58,75l2.73,0.75,9.42,2.57,1.74-3.7a3.58,3.58,0,0,1,.18-0.32,2.55,2.55,0,0,1,1.95-1.19,2.51,2.51,0,0,1,2.1.84l0.19,0.23L66,94a0.66,0.66,0,0,0,.16.15l0.19,0,5.25-1.61,0.21-.05a2.52,2.52,0,0,1,3,1.83,2.49,2.49,0,0,1-1.81,3h0l-5.19,1.59a5.11,5.11,0,0,1-5.69-1.73L48.36,80.23l-0.31.66a7.43,7.43,0,0,1-.39.77,3.66,3.66,0,0,1-3.39,1.8,8.37,8.37,0,0,1-1.67-.26l-8.75-2.38,1.59,7.56a4.32,4.32,0,0,1-3.07,5.09l-0.77.22L38.66,100a5.22,5.22,0,0,1,1.55,2.36,3.85,3.85,0,0,1-2.84,5,6.73,6.73,0,0,1-2.87,0l-16.11-3,0.43,0.82a10,10,0,0,1,.43.94,5.46,5.46,0,0,1,.39,2.48,4.5,4.5,0,0,1-2.55,3.69l-9.35,5,9.28,5a7.46,7.46,0,0,1,.66.39,4.48,4.48,0,0,1,2,4.26,6.64,6.64,0,0,1-.75,2.4l-0.47.92L25.22,129l6.17-1.16c1.26-.24,2.53-0.47,3.8-0.68a5.14,5.14,0,0,1,3,.38,3.7,3.7,0,0,1,2.23,3.55,4.87,4.87,0,0,1-1.75,3.57l-7,6.3,0.77,0.22a4.33,4.33,0,0,1,3.08,5.09l-1.58,7.55L40.31,152c1-.26,2-0.56,3.14-0.8A3.87,3.87,0,0,1,48,153.51l0.39,0.84,13.73-16.91a5.11,5.11,0,0,1,5.61-1.71l5.25,1.6a2.54,2.54,0,0,1,1.88,3,2.46,2.46,0,0,1-3,1.85l-0.35-.09-5.26-1.6a0.45,0.45,0,0,0-.17,0,0.84,0.84,0,0,0-.11.11L49.92,160.42l-0.16.19A2.61,2.61,0,0,1,47.84,161.48ZM35.47,130.77h0ZM14.83,107.82h0Zm20.6-4h0Z"/><path class="cls-1" d="M86.06,78.34a2.46,2.46,0,0,1-2.48-2.27c0-.15,0-0.27,0-0.38l-0.1-5.46a0.49,0.49,0,0,0,0-.17h0L83.3,70,59.5,60.83l-0.23-.09a2.58,2.58,0,0,1-1.5-1.84,2.51,2.51,0,0,1,.65-2.25l0.26-.25,2.85-2.66c-0.39-.64-0.8-1.26-1.2-1.87L56,45.33,54.6,43.16l-0.14-.22a2.59,2.59,0,0,1-.17-2.39,2.51,2.51,0,0,1,1.84-1.48L56.52,39l10.87-1.18L67.22,33A2.5,2.5,0,0,1,71,30.85l10,5.81-0.59-1.1-2.91-5.32L71.58,19.51a2.5,2.5,0,0,1,2.53-3.67l1.51,0.24,4.63,0.76a2.67,2.67,0,0,0,.41,0L83.32,2A2.57,2.57,0,0,1,85,.13,2.5,2.5,0,0,1,87.45.6l0.26,0.23L98.42,11.1l0,0a4.81,4.81,0,0,0,.36-0.33L103,6.47a2.54,2.54,0,0,1,2.58-.61,2.5,2.5,0,0,1,1.7,2l0,0.31c0,0.24.07,0.46,0.1,0.69l2.38,18.42,4.58-10.45a2.5,2.5,0,0,1,4.42-.56l2.67,4,9.5-5.46,0.25-.14a2.57,2.57,0,0,1,2.38,0,2.51,2.51,0,0,1,1.31,2v0.11c0,0.11,0,.21,0,0.32l0.11,2.4q0.24,5.08.49,10.16l4,0.51L140,30.2a2.55,2.55,0,0,1,1.74,1.49,2.51,2.51,0,0,1-.16,2.26l-0.15.25L127.57,55.56a0.63,0.63,0,0,0-.09.19h0s0,0.06.1,0.16l3.14,4.49,0.17,0.25a2.5,2.5,0,0,1-4.24,2.65v0l-3.15-4.5a5.1,5.1,0,0,1-.11-5.94l11.79-18.23-0.69-.08a7.31,7.31,0,0,1-.86-0.13,3.63,3.63,0,0,1-2.76-2.67,8.51,8.51,0,0,1-.27-1.66q-0.22-4.52-.43-9l-6.68,3.84a4.32,4.32,0,0,1-5.79-1.35l-0.44-.66-3.79,8.63a5.24,5.24,0,0,1-1.76,2.2A3.85,3.85,0,0,1,106,32.56a6.71,6.71,0,0,1-.9-2.73L103,13.61l-0.64.65a10.07,10.07,0,0,1-.75.69,5.47,5.47,0,0,1-2.24,1.14,4.49,4.49,0,0,1-4.29-1.28L87.42,7.48,85.56,17.82a7.29,7.29,0,0,1-.17.75A4.47,4.47,0,0,1,82,21.75a6.69,6.69,0,0,1-2.52,0l-1-.17,3.41,6.24,2.92,5.33c0.61,1.13,1.23,2.25,1.82,3.4a5.15,5.15,0,0,1,.56,3,3.71,3.71,0,0,1-2.68,3.22,4.88,4.88,0,0,1-3.93-.56l-8.15-4.74,0,0.79a4.32,4.32,0,0,1-3.89,4.5l-7.66.83,3.65,5.54c0.54,0.83,1.16,1.77,1.72,2.73a3.87,3.87,0,0,1-.76,5l-0.67.62L85.1,65.33a5.11,5.11,0,0,1,3.36,4.8l0.11,5.48a2.53,2.53,0,0,1-2.3,2.72h-0.2Z"/><path class="cls-1" d="M86.09,234.56a2.42,2.42,0,0,1-.76-0.12,2.5,2.5,0,0,1-1.69-1.82l-0.07-.33-2.66-14.73h0l-0.5.06-6,1A2.51,2.51,0,0,1,71.77,215l0.48-.9L80,199.91l1.28-2.33-10,5.84a2.5,2.5,0,0,1-3.91-2.15l0.17-4.81-11-1.18-0.26,0a2.59,2.59,0,0,1-1.92-1.43,2.51,2.51,0,0,1,.08-2.35l0.06-.09,0.18-.29,1.82-2.76,5.14-7.83-3-2.82-0.25-.27a2.55,2.55,0,0,1-.53-2.21,2.51,2.51,0,0,1,1.44-1.74l0.33-.13,23.88-9.22a0.66,0.66,0,0,0,.2-0.11,1.21,1.21,0,0,0,0-.21l0.09-5.23a2.5,2.5,0,0,1,2.5-2.46h0a2.5,2.5,0,0,1,2.46,2.54l-0.09,5.23a5.13,5.13,0,0,1-3.42,4.89l-20.43,7.89,0.54,0.5a7.61,7.61,0,0,1,.62.62,3.64,3.64,0,0,1,.67,3.79,8.48,8.48,0,0,1-.76,1.52l-5,7.65,7.75,0.83a4.33,4.33,0,0,1,3.9,4.51l0,0.83,8.23-4.81a5.23,5.23,0,0,1,2.67-.75h0.07a3.86,3.86,0,0,1,3.92,4.26,6.75,6.75,0,0,1-.88,2.75l-2.17,4-5.75,10.53,1-.16a9.62,9.62,0,0,1,1-.12,5.49,5.49,0,0,1,2.49.39,4.52,4.52,0,0,1,2.73,3.58l1.9,10.54,7.66-7.35a7.3,7.3,0,0,1,.59-0.51,4.48,4.48,0,0,1,4.66-.55,6.69,6.69,0,0,1,2.06,1.46l0.75,0.76,1-7.48q0.37-2.87.74-5.74c0.17-1.28.34-2.57,0.53-3.84A5.17,5.17,0,0,1,107,201.1a3.71,3.71,0,0,1,4.07-1,4.88,4.88,0,0,1,2.86,2.77l3.85,8.72,0.46-.69a4.34,4.34,0,0,1,5.81-1.36l6.76,3.87q0.15-3.36.31-6.71c0.05-1.06.1-2.15,0.21-3.25a3.88,3.88,0,0,1,3.6-3.65l0.95-.12L123.9,181.25a5.13,5.13,0,0,1,.1-5.88l3.13-4.48a2.5,2.5,0,0,1,4.32,2.5h0a2.51,2.51,0,0,1-.19.32l-3.16,4.53a0.53,0.53,0,0,0-.08.16,0.66,0.66,0,0,0,.08.15l14,21.56,0.13,0.21a2.58,2.58,0,0,1,.13,2.37,2.51,2.51,0,0,1-1.84,1.45l-0.34.05-3.95.49c-0.06.74-.09,1.48-0.13,2.25q-0.18,3.85-.35,7.7l-0.13,2.79c0,0.09,0,.17,0,0.27a2.59,2.59,0,0,1-1.27,2,2.51,2.51,0,0,1-2.35.11l-0.33-.17-9.59-5.5-2.66,3.95a2.56,2.56,0,0,1-2.31,1.08,2.5,2.5,0,0,1-2.06-1.43l-1.82-4.12L110.26,207l-0.17,1.32q-0.37,2.87-.74,5.73l-1.61,12.56a2.5,2.5,0,0,1-4.21,1.48l-1.29-1.3-3.11-3.15a2.66,2.66,0,0,0-.32-0.28L88,233.72l-0.21.19A2.62,2.62,0,0,1,86.09,234.56ZM80.86,217.3h0Zm2.57-21h0ZM62,174L62.07,174Z"/><path class="cls-1" d="M208.58,109.18a2.38,2.38,0,0,1-.54-0.06l-0.3-.07-24.63-6.55a0.63,0.63,0,0,0-.22,0,1.66,1.66,0,0,0-.13.15l-3.3,4.38-0.2.24a2.51,2.51,0,0,1-3.53.3,2.48,2.48,0,0,1-.3-3.51l0,0,3.31-4.39a5.11,5.11,0,0,1,5.62-1.94l21,5.59-0.13-.69a7.22,7.22,0,0,1-.14-0.87,3.63,3.63,0,0,1,1.68-3.45,8.39,8.39,0,0,1,1.5-.77l8.48-3.21-5.73-5.18a4.32,4.32,0,0,1-.51-5.93l0.49-.63-9.4-.94a5.24,5.24,0,0,1-2.64-1,3.85,3.85,0,0,1-.67-5.74,6.71,6.71,0,0,1,2.32-1.7l4-1.89,10.81-5.12-0.83-.42a9.75,9.75,0,0,1-.89-0.51A5.44,5.44,0,0,1,212,63.42a4.5,4.5,0,0,1-.1-4.48l4.62-9.56-10.43,1.43a6.89,6.89,0,0,1-.77.07,4.46,4.46,0,0,1-4.08-2.29,6.69,6.69,0,0,1-.8-2.39l-0.16-1-4.77,5.06-4.29,4.55c-0.88.93-1.77,1.87-2.67,2.78A5.14,5.14,0,0,1,185.86,59,3.71,3.71,0,0,1,182,57.48a4.87,4.87,0,0,1-.68-3.92l2-9.23-0.75.28a4.33,4.33,0,0,1-5.48-2.31l-3.16-7-4.15,5.2c-0.71.89-1.36,1.7-2.07,2.49a3.87,3.87,0,0,1-5,.84l-0.81-.45-1.17,21.75a5.11,5.11,0,0,1-3.53,4.69l-5.19,1.8a2.49,2.49,0,0,1-3.25-1.35A2.51,2.51,0,0,1,150,66.93l0.22-.09L155.48,65a0.5,0.5,0,0,0,.16-0.08,0.7,0.7,0,0,0,0-.15L157,39.07a2.59,2.59,0,0,1,1.29-2,2.51,2.51,0,0,1,2.34-.08l0.3,0.16,3.44,1.91c0.45-.53.9-1.09,1.41-1.73l4.34-5.44,2.17-2.72,0.17-.21a2.59,2.59,0,0,1,2.2-.9,2.52,2.52,0,0,1,2,1.27c0.09,0.16.14,0.25,0.18,0.35l4.5,10,4.45-1.62a2.56,2.56,0,0,1,2.49.5,2.5,2.5,0,0,1,.82,2.37l-2.45,11.33,0.87-.92,4.29-4.54,8.3-8.8a2.5,2.5,0,0,1,4.27,1.29l0.39,2.5,0.55,3.64a2.78,2.78,0,0,0,.09.4l14.71-2,0.25,0a2.56,2.56,0,0,1,2.33,1,2.5,2.5,0,0,1,.3,2.49l-0.13.3L216.44,61h0a4.78,4.78,0,0,0,.44.25l5.21,2.61,0.11,0.06,0.09,0a2.5,2.5,0,0,1,0,4.47l-0.9.44-14.56,6.9-2.28,1.08L215.83,78h0.1a2.5,2.5,0,0,1,1.89,4l-2.94,3.76L223,93.13l0.2,0.19a2.58,2.58,0,0,1,.71,2.27,2.51,2.51,0,0,1-1.44,1.85l-0.09,0-0.32.13-2.51.95-9.28,3.51,0.77,4a3.43,3.43,0,0,1,0,.34A2.54,2.54,0,0,1,208.58,109.18ZM206.14,107l0,0.08Z"/><path class="cls-1" d="M129.22,174.76a2.48,2.48,0,0,1-1.35-.4l-0.19-.14h0a2.49,2.49,0,0,1-.85-1.25,2.57,2.57,0,0,1-.09-0.44,2.48,2.48,0,0,1,.07-0.91q0-.08,0-0.16a2.47,2.47,0,0,1,2.88-2l0.13,0,0.32,0.09a53.25,53.25,0,0,0,9.33-2.13,2.5,2.5,0,0,1,1.55,4.75,58.29,58.29,0,0,1-11.54,2.5ZM86.29,161.09h-0.1a2.5,2.5,0,0,1-1.57-.64,57.27,57.27,0,0,1-14.41-19.66,2.5,2.5,0,0,1,.37-2.62l0,0A2.49,2.49,0,0,1,75,139.32v0a52.21,52.21,0,0,0,11.66,16.23,2.46,2.46,0,0,1,2.1,2.43c0,0.06,0,.11,0,0.17l0,0.43h0a2.5,2.5,0,0,1-2.39,2.47H86.29Zm92.27-42a2.5,2.5,0,0,1-2.5-2.47,52.79,52.79,0,0,0-1.06-10,2.45,2.45,0,0,1-.2-1,2.42,2.42,0,0,1,.56-1.55l0.07-.08h0a2.49,2.49,0,0,1,1.5-.86,3.68,3.68,0,0,1,.45,0,2.48,2.48,0,0,1,1.48.52h0l0.12,0.1a2.48,2.48,0,0,1,.8,1.38,57.81,57.81,0,0,1,1.26,11.39,2.5,2.5,0,0,1-2.47,2.53h0ZM72.49,97.29a2.57,2.57,0,0,1-1.94-.85,2.49,2.49,0,0,1-.47-2.62A58.48,58.48,0,0,1,84.41,74a2.56,2.56,0,1,1,2.84,4.18h0A53.51,53.51,0,0,0,75,95a2.51,2.51,0,0,1-2.23,2.25Zm78.4-25.38a2.45,2.45,0,0,1-1.78-.76L149,71l-0.07-.09A53.48,53.48,0,0,0,129,64.53a2.45,2.45,0,0,1-2.29-1.1l-0.07-.11h0A2.51,2.51,0,0,1,129,59.5a58.46,58.46,0,0,1,23.21,7.56,2.48,2.48,0,0,1,1.07,1.21l0.06,0.16a2.49,2.49,0,0,1,0,1.56,2.54,2.54,0,0,1-.35.7,2.48,2.48,0,0,1-.41.51A2.51,2.51,0,0,1,150.89,71.91Z"/></svg>