<?xml version="1.0" encoding="UTF-8"?>
<!-- Generator: Adobe Illustrator 19.2.1, SVG Export Plug-In . SVG Version: 6.00 Build 0)  -->
<svg version="1.1" id="Layer_1" xmlns="http://www.w3.org/2000/svg" xmlns:xlink="http://www.w3.org/1999/xlink" x="0px" y="0px" viewBox="0 0 569.8 234.6" style="enable-background:new 0 0 569.8 234.6;" xml:space="preserve">
<style type="text/css">
	.st0{fill:#FF3333;}
</style>
<title>fr-logo</title>
<path d="M411.6,89.7l-3.2,0.8l-0.8-3.3l5.3-1.6h2.8v18.5h-4L411.6,89.7L411.6,89.7z"/>
<path d="M419.4,99.1L419.4,99.1c-0.1-2.1,1.1-3.9,3-4.5c-1.5-0.8-2.4-2.3-2.3-4v0c0-2.8,2.6-5,6.5-5s6.5,2.2,6.5,5v0.1  c0,1.7-0.9,3.2-2.3,4c1.9,1,3,2.2,3,4.3V99c0,3.4-3,5.4-7.1,5.4S419.4,102.3,419.4,99.1z M429.6,98.8L429.6,98.8  c0-1.5-1.3-2.3-3.2-2.3s-3.2,0.8-3.2,2.3v0.1c0,1.3,1.2,2.3,3.2,2.3S429.6,100.1,429.6,98.8L429.6,98.8z M429.1,91L429.1,91  c-0.1-1.3-1.2-2.3-2.5-2.2c0,0-0.1,0-0.1,0c-1.7,0-2.6,1-2.6,2.1v0c0.2,1.5,1.6,2.5,3,2.2C428,93.1,428.9,92.2,429.1,91z"/>
<path d="M438.5,102.5c-1.3-1.3-2.2-3.3-2.2-7v0c0-5.7,2.6-10,8.1-10c2.1-0.1,4.1,0.6,5.8,2l-2.1,3.1c-1-0.9-2.4-1.5-3.8-1.5  c-2.3,0-3.4,1.8-3.7,4.3c1.1-0.8,2.4-1.2,3.8-1.2c3.6,0,6.5,2,6.5,5.9v0c0,3.8-3,6.4-7,6.4C441.8,104.6,439.9,103.9,438.5,102.5z   M446.8,98.3L446.8,98.3c0-1.6-1.2-2.7-3.2-2.7s-3.1,1.1-3.1,2.7v0.1c0,1.6,1.2,2.7,3.2,2.7S446.8,99.9,446.8,98.3L446.8,98.3z"/>
<path d="M453,101.7l2.4-2.9c1.1,1.2,2.7,1.9,4.4,2c1.9,0,3.1-0.9,3.1-2.6v0c0-1.6-1.3-2.5-3.3-2.5c-1.1,0-2.1,0.2-3.1,0.7l-2.3-1.6  l0.5-9.1h11.3v3.6h-7.8l-0.2,3.2c0.8-0.2,1.6-0.3,2.4-0.3c3.6,0,6.4,1.7,6.4,5.9v0c0,3.9-2.8,6.4-7,6.4  C457.3,104.5,454.8,103.5,453,101.7z"/>
<path d="M477.6,94.1h21v3.7h-21V94.1z"/>
<path d="M512.5,89.7l-3.2,0.8l-0.8-3.3l5.3-1.6h2.8v18.5h-4L512.5,89.7L512.5,89.7z"/>
<path d="M520.7,102.3l2.1-3.1c1.1,1,2.5,1.6,4,1.6c2.3,0,3.5-1.7,3.7-4.2c-1,0.9-2.4,1.3-3.7,1.3c-4,0-6.6-2.2-6.6-5.9v-0.1  c0-3.7,2.9-6.4,7-6.4c2-0.2,3.9,0.6,5.3,2c1.3,1.3,2.2,3.3,2.2,6.9v0.1c0,6-2.8,10-8,10C524.5,104.5,522.4,103.7,520.7,102.3z   M530.7,91.8L530.7,91.8c0-1.7-1.2-2.9-3.2-2.9s-3.1,1.2-3.1,2.8v0.1c0,1.6,1.2,2.8,3.2,2.8S530.7,93.3,530.7,91.8L530.7,91.8z"/>
<path d="M546.7,100.2h-9l-0.7-2.9l10.1-11.7h3.4v11.3h2.4v3.3h-2.5v4h-3.8V100.2z M546.7,96.9v-5.7l-4.9,5.7  C541.8,96.9,546.7,96.9,546.7,96.9z"/>
<path d="M555.8,102.3l2.1-3.1c1.1,1,2.5,1.6,4,1.6c2.3,0,3.5-1.7,3.7-4.2c-1,0.9-2.4,1.3-3.7,1.3c-4,0-6.6-2.2-6.6-5.9v-0.1  c0-3.7,2.9-6.4,7-6.4c2-0.2,3.9,0.6,5.3,2c1.3,1.3,2.2,3.3,2.2,6.9v0.1c0,6-2.8,10-8,10C559.6,104.5,557.4,103.7,555.8,102.3z   M565.8,91.8L565.8,91.8c0-1.7-1.2-2.9-3.2-2.9s-3.1,1.2-3.1,2.8v0.1c0,1.6,1.2,2.8,3.2,2.8S565.7,93.3,565.8,91.8L565.8,91.8z"/>
<path d="M103.6,118.1h8.8v31.8h19.8v8h-28.6V118.1z"/>
<path d="M135.6,142.8v-0.1c0-8.7,6.2-15.8,15.1-15.8c10.2,0,14.8,7.9,14.8,16.5c0,0.7-0.1,1.5-0.1,2.3h-21.2c0.5,3.6,3.8,6.2,7.4,6  c2.8,0,5.5-1.1,7.4-3.1l4.9,4.4c-3,3.8-7.6,5.9-12.4,5.7C142.4,158.6,135.6,152.1,135.6,142.8z M157.1,140.3  c-0.5-3.9-2.8-6.5-6.4-6.5s-5.9,2.6-6.6,6.5H157.1L157.1,140.3z"/>
<path d="M168.6,153.9l3.7-5.7c2.8,2.2,6.1,3.4,9.6,3.6c2.5,0,3.6-0.9,3.6-2.3v-0.1c0-1.9-3-2.5-6.3-3.5c-4.3-1.2-9.1-3.2-9.1-9.1  v-0.1c0-6.2,5-9.7,11.1-9.7c4,0.1,8,1.3,11.4,3.5l-3.3,6c-3-1.8-6-2.8-8.2-2.8s-3.2,0.9-3.2,2.1v0.1c0,1.7,2.9,2.5,6.2,3.6  c4.3,1.4,9.2,3.5,9.2,9v0.1c0,6.8-5.1,9.8-11.6,9.8C177,158.4,172.4,156.8,168.6,153.9z"/>
<path d="M217.5,118.1H233c12.5,0,21.1,8.6,21.1,19.8v0.1c0,11.2-8.6,19.9-21.1,19.9h-15.5V118.1z M233,150c7.2,0,12-4.8,12-11.9V138  c0-7-4.8-12-12-12h-6.8v24H233z"/>
<path d="M259,142.8v-0.1c0-8.7,6.2-15.8,15.1-15.8c10.2,0,14.8,7.9,14.8,16.5c0,0.7-0.1,1.5-0.1,2.3h-21.2c0.5,3.6,3.8,6.2,7.4,6  c2.8,0,5.5-1.1,7.4-3.1l4.9,4.4c-3,3.8-7.6,5.9-12.4,5.7C265.8,158.6,259,152.1,259,142.8z M280.5,140.3c-0.5-3.9-2.8-6.5-6.4-6.5  s-5.9,2.6-6.6,6.5H280.5L280.5,140.3z M276.9,114l7.4,3.2l-7.4,6.8h-6.4L276.9,114z"/>
<path d="M303.4,153.9v4h-8.6v-41.5h8.6v15.4c2.1-3.2,5.7-5,9.5-4.9c7.1,0,13.9,5.6,13.9,15.7v0.1c0,10.2-6.6,15.7-13.9,15.7  C309.2,158.5,305.6,156.8,303.4,153.9z M318.1,142.7v-0.1c0-5.1-3.4-8.4-7.4-8.4s-7.4,3.4-7.4,8.4v0.1c0,5.1,3.4,8.4,7.4,8.4  S318.1,147.8,318.1,142.7L318.1,142.7z"/>
<path d="M330.5,149.1V149c0-6.6,5.1-9.7,12.3-9.7c2.5,0,5.1,0.4,7.4,1.2V140c0-3.6-2.2-5.6-6.5-5.6c-2.9,0-5.7,0.6-8.4,1.6l-2.2-6.6  c3.7-1.7,7.7-2.5,11.8-2.4c4.7,0,8.1,1.2,10.3,3.4s3.3,5.6,3.3,9.7v17.7h-8.4v-3.3c-2.3,2.6-5.7,4-9.2,3.9  C335.2,158.4,330.5,155.2,330.5,149.1z M350.3,147.1v-1.5c-1.7-0.8-3.6-1.2-5.5-1.1c-3.7,0-6,1.5-6,4.2v0.1c0,2.3,1.9,3.7,4.7,3.7  C347.5,152.5,350.3,150.3,350.3,147.1L350.3,147.1z"/>
<path d="M539.8,149.1V149c0-6.6,5.1-9.7,12.3-9.7c2.5,0,5.1,0.4,7.4,1.2V140c0-3.6-2.2-5.6-6.5-5.6c-2.9,0-5.7,0.6-8.4,1.6l-2.2-6.6  c3.7-1.7,7.7-2.5,11.8-2.4c4.7,0,8.1,1.2,10.3,3.4c2.2,2.2,3.3,5.6,3.3,9.7v17.7h-8.4v-3.3c-2.3,2.6-5.7,4-9.2,3.9  C544.5,158.4,539.8,155.2,539.8,149.1z M559.6,147.1v-1.5c-1.7-0.8-3.6-1.2-5.5-1.1c-3.7,0-6,1.5-6,4.2v0.1c0,2.3,1.9,3.7,4.7,3.7  C556.9,152.5,559.6,150.3,559.6,147.1L559.6,147.1z"/>
<path d="M366.6,149.2v-14.4h-3.6v-7.4h3.6v-7.8h8.6v7.8h7.2v7.4h-7.2v13c0,2,0.9,3,2.8,3c1.5,0,3-0.4,4.3-1.1v6.9  c-2.1,1.2-4.4,1.8-6.8,1.8C370.2,158.4,366.6,156.3,366.6,149.2z"/>
<path d="M386,153.9l3.7-5.7c2.8,2.2,6.1,3.4,9.6,3.6c2.5,0,3.6-0.9,3.6-2.3v-0.1c0-1.9-3-2.5-6.3-3.5c-4.3-1.2-9.1-3.2-9.1-9.1v-0.1  c0-6.2,5-9.7,11.1-9.7c4.1,0.1,8,1.3,11.4,3.5l-3.3,6c-3-1.8-6-2.8-8.2-2.8s-3.2,0.9-3.2,2.1v0.1c0,1.7,2.9,2.5,6.2,3.6  c4.3,1.4,9.2,3.5,9.2,9v0.1c0,6.8-5.1,9.8-11.6,9.8C394.3,158.4,389.7,156.8,386,153.9z"/>
<path d="M432.5,142.7v-0.1c0-10.2,6.6-15.7,13.9-15.7c3.7-0.1,7.2,1.6,9.5,4.5v-15h8.6v41.5h-8.6v-4.4c-2.1,3.2-5.7,5-9.5,4.9  C439.3,158.4,432.5,152.9,432.5,142.7z M456,142.7v-0.1c0-5.1-3.4-8.4-7.4-8.4s-7.4,3.3-7.4,8.4v0.1c0,5.1,3.4,8.4,7.4,8.4  S456,147.8,456,142.7L456,142.7z"/>
<path d="M470.4,142.8v-0.1c0-8.7,6.2-15.8,15.1-15.8c10.2,0,14.8,7.9,14.8,16.5c0,0.7-0.1,1.5-0.1,2.3H479c0.5,3.6,3.8,6.2,7.4,6  c2.8,0,5.5-1.1,7.4-3.1l4.9,4.4c-3,3.8-7.6,5.9-12.4,5.7C477.2,158.6,470.4,152.1,470.4,142.8z M491.9,140.3  c-0.5-3.9-2.8-6.5-6.4-6.5s-5.9,2.6-6.6,6.5H491.9L491.9,140.3z"/>
<path d="M524.2,116.4h8.6v41.5h-8.6V116.4z"/>
<path d="M167.3,191.9v-0.1c-0.2-11.2,8.7-20.4,19.9-20.6c0.3,0,0.6,0,0.9,0c7.5,0,12,2.5,15.7,6.1l-5.6,6.4  c-3.1-2.8-6.2-4.5-10.2-4.5c-6.7,0-11.5,5.6-11.5,12.4v0.1c0,6.8,4.7,12.5,11.5,12.5c4.6,0,7.3-1.8,10.5-4.7l5.6,5.6  c-4.1,4.4-8.6,7.1-16.3,7.1c-11.1,0.2-20.2-8.7-20.4-19.8C167.3,192.3,167.3,192.1,167.3,191.9z"/>
<path d="M207.1,196.6v-0.1c0-8.8,7-15.9,16.5-15.9s16.4,7,16.4,15.7v0.1c0,8.8-7,15.9-16.5,15.9S207.1,205.3,207.1,196.6z   M231.5,196.6v-0.1c0-4.5-3.2-8.4-8-8.4c-4.9,0-7.9,3.8-7.9,8.3v0.1c0,4.5,3.2,8.4,8,8.4C228.6,204.9,231.5,201.1,231.5,196.6  L231.5,196.6z"/>
<path d="M245.8,181.2h8.6v4.3c2-2.6,4.5-4.9,8.9-4.9c6.5,0,10.3,4.3,10.3,11.3v19.7H265v-17c0-4.1-1.9-6.2-5.2-6.2s-5.4,2.1-5.4,6.2  v17h-8.6L245.8,181.2L245.8,181.2z"/>
<path d="M282.1,188.6h-3.6v-7.1h3.6v-1.9c0-3.4,0.9-5.8,2.4-7.4s3.9-2.4,7-2.4c2.1-0.1,4.2,0.2,6.1,0.9v7.2  c-1.3-0.5-2.6-0.7-3.9-0.7c-2,0-3.1,1-3.1,3.3v1.2h7v7h-6.9v23.1h-8.6L282.1,188.6L282.1,188.6z"/>
<path d="M300.1,196.6v-0.1c0-8.7,6.2-15.9,15.1-15.9c10.2,0,14.8,7.9,14.8,16.5c0,0.7-0.1,1.5-0.1,2.3h-21.2c0.5,3.6,3.8,6.2,7.4,6  c2.8,0,5.5-1.1,7.4-3.1l4.9,4.4c-3,3.7-7.7,5.8-12.5,5.6C306.9,212.3,300.1,205.9,300.1,196.6z M321.6,194c-0.5-3.9-2.8-6.5-6.4-6.5  s-5.9,2.6-6.6,6.5H321.6L321.6,194z M318,167.8l7.4,3.2l-7.4,6.8h-6.4L318,167.8z"/>
<path d="M334.5,196.4v-0.1c0-10.2,6.6-15.7,13.9-15.7c3.7-0.1,7.2,1.6,9.5,4.6v-15h8.6v41.5h-8.7v-4.4c-2.1,3.2-5.7,5-9.5,4.9  C341.2,212.2,334.5,206.6,334.5,196.4z M357.9,196.4v-0.1c0-5.1-3.4-8.4-7.4-8.4s-7.4,3.3-7.4,8.4v0.1c0,5.1,3.4,8.4,7.4,8.4  S357.9,201.5,357.9,196.4L357.9,196.4z"/>
<path d="M372.3,196.6v-0.1c0-8.7,6.2-15.9,15.1-15.9c10.2,0,14.8,7.9,14.8,16.5c0,0.7-0.1,1.5-0.1,2.3h-21.2c0.5,3.6,3.8,6.2,7.4,6  c2.8,0,5.5-1.1,7.4-3.1l4.9,4.4c-3,3.8-7.6,5.9-12.4,5.7C379.1,212.3,372.3,205.9,372.3,196.6z M393.8,194c-0.5-3.9-2.8-6.5-6.4-6.5  s-5.9,2.6-6.6,6.5H393.8L393.8,194z M390.1,167.8l7.4,3.2l-7.4,6.8h-6.4L390.1,167.8z"/>
<path d="M408,181.2h8.6v6.1c1.8-4.2,4.6-6.9,9.7-6.7v9h-0.5c-5.7,0-9.3,3.5-9.3,10.7v11.2H408V181.2z"/>
<path d="M428.4,202.9v-0.1c0-6.6,5.1-9.7,12.3-9.7c2.5,0,5.1,0.4,7.4,1.2v-0.5c0-3.6-2.2-5.6-6.5-5.6c-2.9,0-5.7,0.6-8.4,1.6  l-2.1-6.6c3.7-1.7,7.7-2.5,11.8-2.4c4.7,0,8.1,1.2,10.3,3.4s3.3,5.6,3.3,9.7v17.7H448v-3.3c-2.3,2.6-5.7,4-9.2,3.9  C433.1,212.2,428.4,208.9,428.4,202.9z M448.2,200.9v-1.5c-1.7-0.8-3.6-1.2-5.5-1.1c-3.7,0-6,1.5-6,4.2v0.1c0,2.3,1.9,3.7,4.7,3.7  C445.5,206.2,448.2,204,448.2,200.9L448.2,200.9z"/>
<path d="M464.5,203v-14.4h-3.6v-7.4h3.6v-7.8h8.6v7.8h7.2v7.4h-7.2v13c0,2,0.9,3,2.8,3c1.5,0,3-0.4,4.3-1.1v6.9  c-2.1,1.2-4.4,1.8-6.8,1.8C468.1,212.1,464.5,210,464.5,203z"/>
<path d="M486.4,170.1h9.1v7.7h-9.1V170.1z M486.7,181.1h8.6v30.5h-8.6V181.1L486.7,181.1z"/>
<path d="M501,196.6v-0.1c0-8.8,7-15.9,16.5-15.9s16.4,7,16.4,15.7v0.1c0,8.8-7,15.9-16.5,15.9S501,205.3,501,196.6z M525.4,196.6  v-0.1c0-4.5-3.2-8.4-8-8.4c-4.9,0-7.9,3.8-7.9,8.3v0.1c0,4.5,3.2,8.4,8,8.4C522.5,204.9,525.5,201.1,525.4,196.6L525.4,196.6z"/>
<path d="M539.7,181.2h8.6v4.3c2-2.6,4.5-4.9,8.9-4.9c6.5,0,10.3,4.3,10.3,11.3v19.7H559v-17c0-4.1-1.9-6.2-5.2-6.2s-5.4,2.1-5.4,6.2  v17h-8.6V181.2z"/>
<path class="st0" d="M47.8,161.5h-0.3c-0.8-0.1-1.5-0.6-1.9-1.3l-0.2-0.3l-1.7-3.6c-0.7,0.2-1.5,0.4-2.2,0.6l-7,1.9l-3.1,0.9  l-0.3,0.1c-0.8,0.2-1.7,0-2.3-0.6c-0.6-0.6-0.9-1.4-0.8-2.2c0-0.2,0-0.3,0.1-0.4l2.2-10.7l-4.5-1.3c-0.9-0.3-1.5-1-1.7-1.9  c-0.2-0.9,0.1-1.8,0.7-2.4l3.2-2.9l5.4-4.9l-1.2,0.2l-6.1,1.1l-11.9,2.2c-1.4,0.2-2.7-0.7-2.9-2c-0.1-0.5,0-1.1,0.2-1.5l0.2-0.3  l2.7-5.2c0.1-0.1,0.1-0.2,0.2-0.4l-13.1-7l-0.2-0.1c-0.8-0.5-1.2-1.3-1.2-2.2c0-0.9,0.4-1.7,1.2-2.2l0.3-0.2l13.1-7l0,0  c-0.1-0.2-0.1-0.3-0.2-0.5l-2.8-5.3c-0.4-0.9-0.3-1.9,0.2-2.7c0.6-0.8,1.5-1.2,2.4-1l1,0.2l18.3,3.4L25,94.5  c-1.1-0.9-1.3-2.4-0.4-3.5c0.3-0.4,0.8-0.7,1.3-0.9l4.6-1.3l-2.3-10.7c0-0.1,0-0.2,0-0.3c-0.1-0.8,0.2-1.7,0.8-2.2  c0.6-0.6,1.4-0.8,2.3-0.6h0.1l0.3,0.1l2.7,0.8l9.4,2.6l1.7-3.7c0-0.1,0.1-0.2,0.2-0.3c0.4-0.7,1.1-1.1,2-1.2  c0.8-0.1,1.6,0.2,2.1,0.8l0.2,0.2L66,94c0,0.1,0.1,0.1,0.2,0.2h0.2l5.2-1.6l0.2-0.1c1.4-0.1,2.6,1,2.6,2.3c0.1,1-0.5,2-1.4,2.4l0,0  l-5.2,1.6c-2.1,0.7-4.4,0-5.7-1.7L48.4,80.2l-0.3,0.7c-0.1,0.3-0.2,0.5-0.4,0.8c-0.7,1.2-2,1.9-3.4,1.8c-0.6,0-1.1-0.1-1.7-0.3  l-8.7-2.4l0,0l1.6,7.6c0.5,2.2-0.9,4.5-3.1,5.1l-0.8,0.2l7,6.3c0.7,0.6,1.3,1.4,1.5,2.4c0.7,2-0.4,4.2-2.4,4.9  c-0.1,0-0.3,0.1-0.4,0.1c-0.9,0.2-1.9,0.2-2.9,0l-16.1-3l0.4,0.8c0.2,0.3,0.3,0.6,0.4,0.9c0.3,0.8,0.5,1.6,0.4,2.5  c-0.1,1.6-1.1,3-2.5,3.7l-9.4,5l9.3,5c0.2,0.1,0.4,0.2,0.7,0.4c1.4,0.9,2.2,2.6,2,4.3c-0.1,0.8-0.4,1.7-0.8,2.4l-0.5,0.9l6.8-1.3  l6.1-1.2c1.3-0.2,2.5-0.5,3.8-0.7c1-0.2,2.1,0,3,0.4c1.4,0.6,2.3,2,2.2,3.5c0,1.4-0.7,2.7-1.8,3.6l-7,6.3l0.8,0.2  c2.2,0.6,3.6,2.8,3.1,5.1l-1.6,7.6l6.4-1.8c1-0.3,2-0.6,3.1-0.8c1.9-0.5,3.8,0.5,4.5,2.3l0.4,0.8l13.7-16.9c1.3-1.7,3.6-2.4,5.6-1.7  l5.2,1.6c1.3,0.3,2.2,1.7,1.9,3c-0.3,1.3-1.6,2.2-2.9,1.9c0,0,0,0-0.1,0l-0.4-0.1l-5.3-1.6c-0.1,0-0.1,0-0.2,0c0,0-0.1,0.1-0.1,0.1  l-16.1,19.8l-0.2,0.2C49.3,161.2,48.6,161.5,47.8,161.5z M35.5,130.8L35.5,130.8z M14.8,107.8L14.8,107.8z M35.4,103.8L35.4,103.8z"/>
<path class="st0" d="M86.1,78.3c-1.3,0-2.4-1-2.5-2.3c0-0.1,0-0.2,0-0.3l-0.1-5.5c0-0.1,0-0.1,0-0.2l0,0L83.3,70l-23.8-9.2l-0.2-0.1  c-0.8-0.3-1.3-1-1.5-1.8c-0.2-0.8,0.1-1.7,0.7-2.2l0.2-0.2l2.9-2.7c-0.4-0.7-0.8-1.3-1.2-1.9l-4-6l-1.8-2.7l-0.2-0.2  c-0.4-0.7-0.5-1.6-0.2-2.4c0.3-0.8,1-1.3,1.8-1.5l0.4-0.1l10.9-1.2l-0.2-4.7c0-0.9,0.5-1.8,1.2-2.2c0.8-0.5,1.7-0.5,2.5,0l10,5.8  l-0.6-1.1l-8.8-16.1c-0.7-1.2-0.2-2.7,1-3.4c0.5-0.3,1-0.4,1.5-0.3l1.6,0.3l4.5,0.7c0.1,0,0.3,0,0.4,0l2.6-14.6c0-0.1,0-0.2,0.1-0.3  c0.2-0.9,0.8-1.6,1.7-1.9c0.8-0.3,1.8-0.1,2.4,0.5l0.2,0.2l10.7,10.3l0,0c0.1-0.1,0.3-0.2,0.4-0.3l4.2-4.3c0.7-0.7,1.7-0.9,2.6-0.6  c0.9,0.3,1.6,1.1,1.7,2v0.3c0,0.2,0.1,0.5,0.1,0.7l2.4,18.4l4.6-10.5c0.5-1.3,1.9-2,3.2-1.5c0.5,0.2,0.9,0.5,1.2,0.9l2.7,4l9.5-5.5  l0.2-0.1c0.7-0.4,1.6-0.4,2.4,0c0.7,0.4,1.2,1.2,1.3,2v0.1c0,0.1,0,0.2,0,0.4l0.1,3.2c0.1,3.1,0.3,6.2,0.4,9.4l4,0.5l0.5,0  c0.8,0.2,1.4,0.7,1.7,1.5c0.3,0.7,0.3,1.6-0.1,2.2l-0.2,0.3l-13.9,21.4c0,0.1-0.1,0.1-0.1,0.2l0,0c0,0,0,0.1,0.1,0.2l3.1,4.5  l0.2,0.2c0.7,1.2,0.4,2.7-0.8,3.4c-1.2,0.7-2.7,0.4-3.4-0.8l0,0l-3.2-4.5c-1.3-1.8-1.3-4.1-0.1-5.9l11.8-18.2l-0.7-0.1  c-0.3,0-0.6-0.1-0.9-0.1c-1.4-0.3-2.4-1.3-2.8-2.7c-0.1-0.5-0.2-1.1-0.3-1.7c-0.1-3-0.3-6-0.4-9l-6.7,3.8c-2,1.2-4.5,0.6-5.8-1.4  l-0.4-0.7l-3.8,8.6c-0.4,0.9-1,1.6-1.8,2.2c-1.7,1.3-4.1,0.9-5.4-0.8c-0.1-0.1-0.2-0.3-0.3-0.5c-0.5-0.8-0.8-1.8-0.9-2.7L103,13.6  l-0.6,0.6c-0.2,0.2-0.5,0.5-0.8,0.7c-0.6,0.5-1.4,0.9-2.2,1.1c-1.6,0.4-3.2-0.1-4.3-1.3l-7.7-7.3l-1.9,10.3c0,0.3-0.1,0.5-0.2,0.8  c-0.4,1.6-1.8,2.8-3.4,3.2c-0.8,0.2-1.7,0.2-2.5,0l-1-0.2l6.3,11.6c0.6,1.1,1.2,2.3,1.8,3.4c0.5,0.9,0.7,2,0.6,3  c-0.1,1.5-1.2,2.8-2.7,3.2c-1.3,0.4-2.8,0.2-3.9-0.6l-8.2-4.7v0.8c0.1,2.3-1.6,4.3-3.9,4.5l-7.7,0.8l3.6,5.5c0.7,1,1.2,1.8,1.7,2.7  c1,1.6,0.7,3.8-0.8,5l-0.7,0.6l20.3,7.8c2,0.7,3.4,2.7,3.4,4.8l0.1,5.5c0.1,1.4-0.9,2.6-2.3,2.7L86.1,78.3L86.1,78.3z"/>
<path class="st0" d="M86.1,234.6c-0.3,0-0.5,0-0.8-0.1c-0.8-0.3-1.5-1-1.7-1.8l-0.1-0.3l-2.7-14.7l0,0l-0.5,0.1l-6,1  c-1.4,0.2-2.7-0.7-2.9-2c-0.1-0.5,0-1.1,0.2-1.6l0.5-0.9l9-16.5l-9.9,5.8c-0.8,0.5-1.8,0.6-2.7,0.2c-0.8-0.4-1.3-1.3-1.3-2.2  l0.2-4.8l-11-1.2h-0.3c-0.8-0.1-1.6-0.7-1.9-1.4c-0.4-0.7-0.3-1.6,0.1-2.4l0-0.1l0.2-0.3l1.8-2.8l5.1-7.8l-3-2.8l-0.2-0.3  c-0.5-0.6-0.7-1.4-0.5-2.2c0.2-0.8,0.7-1.4,1.4-1.7l0.3-0.1l23.9-9.2c0.1,0,0.1-0.1,0.2-0.1c0-0.1,0-0.1,0-0.2l0.1-5.2  c0-1.4,1.1-2.5,2.5-2.5l0,0c1.4,0,2.5,1.2,2.5,2.5c0,0,0,0,0,0l-0.1,5.2c0,2.2-1.4,4.2-3.4,4.9l-20.4,7.9l0.5,0.5  c0.2,0.2,0.4,0.4,0.6,0.6c0.9,1,1.2,2.5,0.7,3.8c-0.2,0.5-0.5,1-0.8,1.5l-5,7.6l7.8,0.8c2.3,0.2,4,2.2,3.9,4.5v0.8l8.2-4.8  c0.8-0.5,1.8-0.7,2.7-0.8c2.1,0,3.9,1.6,3.9,3.8c0,0.2,0,0.3,0,0.5c-0.1,1-0.4,1.9-0.9,2.8l-7.9,14.5l1-0.2c0.3-0.1,0.7-0.1,1-0.1  c0.8-0.1,1.7,0.1,2.5,0.4c1.5,0.6,2.5,2,2.7,3.6l1.9,10.5l7.7-7.4c0.2-0.2,0.4-0.4,0.6-0.5c1.3-1,3.1-1.3,4.7-0.6  c0.8,0.4,1.5,0.8,2.1,1.5l0.8,0.8l0.9-6.8c0.3-2.1,0.6-4.3,0.8-6.4c0.2-1.3,0.3-2.6,0.5-3.9c0.1-1,0.6-2,1.3-2.8  c1-1.1,2.6-1.5,4.1-1c1.3,0.5,2.3,1.5,2.9,2.8l3.8,8.7l0.5-0.7c1.3-1.9,3.8-2.5,5.8-1.4l6.8,3.9c0.1-2.2,0.2-4.5,0.3-6.7  c0.1-1.2,0.1-2.2,0.2-3.2c0.1-1.9,1.6-3.5,3.6-3.6l0.9-0.1l-12-18.4c-1.2-1.8-1.2-4.1,0.1-5.9l3.2-4.5c0.8-1.1,2.3-1.5,3.5-0.7  c1.1,0.8,1.5,2.3,0.7,3.5c0,0,0,0.1-0.1,0.1l-3.1,4.5c0,0-0.1,0.1-0.1,0.2c0,0.1,0,0.1,0.1,0.1l14.1,21.8c0.4,0.7,0.5,1.6,0.1,2.4  c-0.3,0.8-1,1.3-1.8,1.4l-0.4,0.1l-3.9,0.5c-0.1,0.8-0.1,1.6-0.1,2.2c-0.1,2.4-0.2,4.8-0.3,7.2l-0.1,3.3c0,0.1,0,0.2,0,0.3  c-0.1,0.8-0.5,1.6-1.3,2c-0.7,0.4-1.6,0.5-2.4,0.1l-0.3-0.2l-9.6-5.5l-2.7,4c-0.5,0.7-1.4,1.1-2.3,1.1c-0.9-0.1-1.7-0.6-2.1-1.4  l-4.7-10.8l-0.2,1.3c-0.3,2.1-0.6,4.3-0.8,6.4l-1.5,11.9c-0.2,1.4-1.4,2.3-2.8,2.1c-0.5-0.1-1-0.3-1.4-0.7l-1.5-1.5l-2.9-2.9  c-0.1-0.1-0.2-0.2-0.3-0.3L88,233.7l-0.2,0.2C87.3,234.3,86.7,234.6,86.1,234.6z M80.9,217.3L80.9,217.3z M83.4,196.3L83.4,196.3z"/>
<path class="st0" d="M208.6,109.2c-0.2,0-0.4,0-0.5-0.1l-0.3-0.1l-24.6-6.6c-0.1,0-0.1,0-0.2,0c0,0-0.1,0.1-0.1,0.2l-3.3,4.4  l-0.2,0.2c-0.9,1.1-2.5,1.2-3.5,0.3c-1.1-0.9-1.2-2.4-0.3-3.5c0,0,0,0,0,0l0,0l3.3-4.4c1.3-1.8,3.5-2.6,5.6-1.9l21,5.6l-0.1-0.7  c-0.1-0.3-0.1-0.6-0.1-0.8c-0.1-1.4,0.5-2.7,1.7-3.5c0.5-0.3,1-0.6,1.5-0.8l8.5-3.2l-5.7-5.2c-1.7-1.5-1.9-4.1-0.5-5.9l0.5-0.6  l-9.4-0.9c-1-0.1-1.9-0.4-2.6-1c-1.7-1.2-2.2-3.6-1-5.4c0.1-0.1,0.2-0.3,0.3-0.4c0.6-0.7,1.4-1.3,2.3-1.7l14.8-7l-0.8-0.4  c-0.3-0.2-0.6-0.3-0.9-0.5c-0.7-0.5-1.3-1.1-1.7-1.9c-0.8-1.4-0.9-3.1-0.1-4.5l4.6-9.6l-10.4,1.4c-0.3,0-0.5,0.1-0.8,0.1  c-1.7,0.1-3.3-0.8-4.1-2.3c-0.4-0.7-0.7-1.5-0.8-2.4l-0.2-1l-4.7,5l-4.4,4.6c-0.9,0.9-1.8,1.9-2.7,2.8c-0.7,0.7-1.7,1.2-2.7,1.4  c-1.5,0.3-3-0.3-3.9-1.5c-0.8-1.1-1-2.6-0.7-3.9c0.7-3.1,1.3-6.2,2-9.2l-0.8,0.3c-2.2,0.9-4.6-0.2-5.6-2.3l-3.2-7l-4.1,5.2  c-0.6,0.8-1.3,1.7-2.1,2.5c-1.2,1.5-3.4,1.8-5,0.8l-0.8-0.5l-1.2,21.7c-0.1,2.2-1.5,4-3.5,4.7l-5.2,1.8c-1.3,0.6-2.7,0-3.3-1.2  c-0.6-1.3,0-2.7,1.2-3.3c0.1,0,0.2-0.1,0.2-0.1l0.2-0.1l5.2-1.9c0.1,0,0.1,0,0.2-0.1c0,0,0-0.1,0-0.2l1.4-25.5c0-0.1,0-0.2,0-0.3  c0.1-0.8,0.6-1.6,1.3-2c0.7-0.4,1.6-0.4,2.3-0.1l0.3,0.2l3.4,1.9c0.5-0.6,1-1.2,1.4-1.7l4.3-5.4l2.2-2.7l0.2-0.2  c0.6-0.6,1.4-1,2.2-0.9c0.8,0.1,1.6,0.6,2,1.3c0.1,0.2,0.1,0.3,0.2,0.4l4.5,10l4.4-1.6c0.9-0.3,1.8-0.1,2.5,0.5  c0.7,0.6,1,1.5,0.8,2.4l-0.9,4.2l-1.5,7.1l0.9-0.9l4.4-4.6l8.2-8.8c1-1,2.5-1,3.5-0.1c0.4,0.4,0.6,0.8,0.7,1.4l0.4,2.3l0.6,3.9  c0,0.1,0.1,0.3,0.1,0.4l14.7-2h0.2c0.9-0.1,1.8,0.3,2.3,1c0.5,0.7,0.7,1.7,0.3,2.5l-0.1,0.3L216.4,61l0,0c0.1,0.1,0.3,0.2,0.4,0.2  l5.2,2.6h0.1l0.1,0.1c1.2,0.6,1.7,2.1,1.1,3.4c-0.2,0.5-0.6,0.9-1.1,1.1l-0.3,0.1l-0.6,0.3l-16.8,8l11.3,1.1h0.1  c1.4,0.1,2.4,1.2,2.4,2.6c0,0.5-0.2,1-0.5,1.4l-2.9,3.8l8.1,7.4l0.2,0.2c0.6,0.6,0.9,1.4,0.7,2.3c-0.1,0.8-0.7,1.5-1.4,1.8h-0.1  l-0.3,0.1l-2.7,1l-9.1,3.4l0.8,4c0,0.1,0,0.2,0,0.4c0.1,1.4-0.9,2.6-2.3,2.8C208.7,109.2,208.6,109.2,208.6,109.2z M206.1,107  L206.1,107L206.1,107z"/>
<path class="st0" d="M129.2,174.8c-0.5,0-1-0.1-1.4-0.4l-0.2-0.1c-0.4-0.3-0.7-0.8-0.9-1.3c0-0.1-0.1-0.3-0.1-0.4l0,0  c0-0.3,0-0.6,0.1-0.9v-0.1c0.2-1.3,1.5-2.2,2.9-2c0,0,0,0,0,0h0.1l0.3,0.1c3.2-0.4,6.3-1.1,9.3-2.1c1.3-0.5,2.7,0.2,3.2,1.5  s-0.2,2.7-1.5,3.2c-0.1,0-0.1,0-0.2,0.1c-3.7,1.2-7.6,2.1-11.5,2.5L129.2,174.8z M86.3,161.1h-0.1c-0.6,0-1.1-0.3-1.6-0.6  c-6.2-5.4-11.1-12.1-14.4-19.7c-0.6-1.3,0-2.7,1.2-3.3c0.3-0.1,0.5-0.2,0.8-0.3c1.3-0.2,2.5,0.8,2.7,2.1l0,0  c2.8,6.1,6.8,11.6,11.7,16.2c1.2,0.2,2.1,1.2,2.1,2.4c0,0,0,0.1,0,0.1v0.5l0,0c0,0.6-0.2,1.1-0.6,1.6l0,0  C87.7,160.7,87,161,86.3,161.1L86.3,161.1L86.3,161.1z M178.6,119.1c-1.4,0-2.5-1.1-2.5-2.5c0-3.3-0.4-6.6-1-9.8  c-0.4-0.9-0.3-1.9,0.4-2.7l0,0c0.1-0.1,0.2-0.2,0.4-0.3c0.6-0.5,1.4-0.7,2.2-0.5c0.9,0.2,1.6,0.9,1.9,1.9c0.8,3.8,1.2,7.6,1.3,11.4  C181.1,118,180,119.1,178.6,119.1C178.6,119.1,178.6,119.1,178.6,119.1L178.6,119.1L178.6,119.1z M72.4,97.3c-0.4,0-0.7-0.1-1.1-0.2  c-0.1-0.1-0.3-0.2-0.4-0.2c-0.4-0.3-0.7-0.8-0.9-1.3v-0.1c-0.1-0.5-0.1-1.1,0.2-1.6c3.3-7.5,8.2-14.3,14.3-19.8c1-1,2.6-0.9,3.6,0.1  c1,1,0.9,2.6-0.1,3.6c-0.2,0.2-0.4,0.3-0.7,0.5C82.1,82.9,77.9,88.6,75,95c-0.1,1.1-0.8,2-1.9,2.2H73l0,0  C72.8,97.3,72.6,97.3,72.4,97.3z M150.8,71.9c-0.7,0-1.3-0.3-1.7-0.7L149,71l-0.1-0.1c-6.2-3.4-12.9-5.6-19.9-6.4  c-0.9,0.1-1.8-0.3-2.3-1.1l-0.1-0.1l0,0c-0.3-0.5-0.4-1.1-0.3-1.7c0-0.1,0.1-0.3,0.1-0.4c0.2-0.5,0.5-1,1-1.3l0.1-0.1  c0.5-0.3,1-0.4,1.6-0.3c8.2,0.9,16.1,3.4,23.2,7.6c0.5,0.3,0.8,0.7,1.1,1.2l0.1,0.2c0.2,0.5,0.2,1.1,0,1.6c0,0.1-0.1,0.3-0.2,0.4  c-0.1,0.3-0.4,0.5-0.6,0.8l-0.1,0.1C152.1,71.6,151.5,71.9,150.8,71.9L150.8,71.9z"/>
</svg>